<svg id="Layer_1" xmlns="http://www.w3.org/2000/svg" viewBox="0 0 134.9 37.2"><style>.st0{fill:#ff5722}.st1{fill:#212121}</style><path class="st0" d="M41.8 16.8V.2H46c1.1 0 2 .1 2.7.3.7.2 1.3.5 1.7 1 .4.4.7 1 .9 1.6.2.6.3 1.4.3 2.4v6c0 1-.1 1.8-.3 2.4-.2.7-.5 1.2-.9 1.7s-1 .8-1.7 1-1.6.3-2.7.3h-4.2zm3.7-2.5h.5c.3 0 .5 0 .7-.1.2 0 .4-.1.5-.2l.3-.3c.1-.1.1-.3.2-.5 0-.2.1-.4.1-.6V4.9v-1c0-.2-.1-.4-.2-.6-.2-.2-.4-.3-.6-.4s-.6-.1-1-.1h-.6v11.5zM53.8 16.8V.2h7.5v2.5h-3.8v4.1h2.9v2.6h-2.9v5h3.8v2.5h-7.5zM67.4 17.1c-1.6 0-2.7-.4-3.5-1.3s-1.2-2.2-1.2-4l3.1-.5c0 1 .1 1.8.4 2.3s.6.7 1.1.7c.6 0 .9-.4.9-1.2 0-.4-.1-.9-.2-1.2-.2-.4-.4-.7-.6-1-.2-.3-.6-.6-1-.9l-1.5-1.3c-.4-.3-.6-.6-.9-.8-.2-.3-.5-.6-.7-.9s-.4-.7-.5-1.2c-.1-.4-.2-.9-.2-1.4 0-1.4.4-2.5 1.2-3.2s2-1.1 3.4-1.1c.5 0 .9.1 1.3.2s.7.2 1 .4c.3.2.5.4.7.7.2.3.4.5.5.8l.3.9c.1.3.1.6.2.9 0 .3.1.6.1.9l-3.2.4v-.7c0-.2 0-.4-.1-.6s.1-.5 0-.7-.1-.2-.2-.3c-.1-.1-.2-.2-.3-.2s-.3-.1-.4-.1c-.3 0-.6.1-.7.4-.2.3-.3.6-.3.9 0 .3 0 .6.1.9.1.3.2.5.4.7l.5.5.6.6 1.4 1.2c.4.3.7.7 1 1 .3.3.5.7.8 1.1s.4.8.6 1.3c.1.5.2 1 .2 1.6 0 1.2-.4 2.2-1.2 3-.8.8-1.8 1.2-3.1 1.2zM73.5 16.8V.2h3.7v16.6h-3.7zM84 17.1c-.8 0-1.6-.1-2.2-.4s-1.1-.7-1.4-1.2c-.3-.5-.6-1.1-.8-1.8-.2-.7-.2-1.5-.2-2.4V5.8c0-.7.1-1.4.2-2 .1-.6.3-1.1.5-1.6s.5-.9.9-1.2c.4-.3.9-.6 1.4-.7.6-.2 1.3-.3 2-.3s1.4.1 1.9.2c.6.2 1 .4 1.4.6.4.3.7.6.9 1 .2.4.4.9.5 1.3.1.5.1 1 .1 1.6v1.1h-3.6V4.6 4c0-.1 0-.3-.1-.5 0-.2-.1-.3-.2-.5-.1-.1-.2-.2-.4-.3s-.3-.1-.6-.1c-.2 0-.4 0-.6.1-.2.1-.3.2-.4.3-.1.1-.2.3-.2.5s-.1.4-.1.6v8.2c0 .7.1 1.2.3 1.6s.6.6 1.1.6c1 0 1.4-.7 1.4-2.2v-1.9h-1.5V8.2h4.8v8.6h-2.4l-.2-1.4c-.3 1.1-1.2 1.7-2.5 1.7zM91.6 16.8V.2h2.6l3.4 8v-8h3v16.6h-2.5l-3.4-8.6v8.6h-3.1zM103 16.8V.2h7.5v2.5h-3.8v4.1h2.9v2.6h-2.9v5h3.8v2.5H103zM112.2 16.8V.2h4.5c.7 0 1.3 0 1.9.1.5.1 1 .2 1.5.4s.9.5 1.2.8c.3.3.5.7.7 1.3s.3 1.1.3 1.8c0 1.1-.1 2-.4 2.6s-.8 1.2-1.6 1.5l2.3 8h-3.8L117 9.3h-1v7.4h-3.8zm3.7-9.5h.9c.7 0 1.3-.2 1.6-.6.3-.4.5-1 .5-1.8s-.1-1.3-.4-1.7c-.3-.4-.8-.6-1.4-.6H116v4.7z"/><g><path class="st0" d="M41.8 37V20.4H46c1.1 0 2 .1 2.7.3s1.3.5 1.7 1c.4.4.7 1 .9 1.6s.3 1.4.3 2.4v6c0 1-.1 1.8-.3 2.4s-.5 1.2-.9 1.7-1 .8-1.7 1c-.7.1-1.6.2-2.7.2h-4.2zm3.7-2.5h.5c.3 0 .5 0 .7-.1.2 0 .4-.1.5-.2l.3-.3c.1-.1.1-.3.2-.5 0-.2.1-.4.1-.6V25v-1c0-.2-.1-.4-.2-.6-.1-.2-.3-.3-.5-.4H45.4v11.5zM53.8 37V20.4h7.5v2.5h-3.8V27h2.9v2.6h-2.9v5h3.8V37h-7.5zM65.2 37l-3-16.6h3.1l1.8 11.2 1.7-11.2h3.3L69 37h-3.8zM73.7 37V20.4h7.5v2.5h-3.8V27h2.9v2.6h-2.9v5h3.8V37h-7.5zM82.9 37V20.4h3.7v14.1h3.8V37h-7.5zM96.6 37.2c-.9 0-1.7-.1-2.4-.4-.7-.2-1.2-.6-1.6-1.1-.4-.5-.7-1.1-.8-1.7-.2-.7-.3-1.4-.3-2.3v-6.1c0-.9.1-1.7.3-2.3.2-.7.4-1.2.8-1.7s.9-.8 1.6-1.1c.7-.2 1.4-.4 2.4-.4 1.8 0 3.1.5 3.9 1.4.8.9 1.2 2.3 1.2 4.1v6.1c0 1.8-.4 3.2-1.2 4.1-.9 1-2.2 1.4-3.9 1.4zm-.6-2.7c.2.1.3.1.6.1.2 0 .4 0 .6-.1.2-.1.3-.2.4-.3s.2-.3.2-.5.1-.4.1-.5v-8.6-.6c0-.2 0-.3-.1-.5s-.1-.3-.2-.4c-.1-.1-.2-.2-.4-.3s-.4-.1-.6-.1c-.2 0-.4 0-.6.1-.2.1-.3.2-.4.3s-.2.3-.2.5-.1.4-.1.5v9.2c0 .2 0 .3.1.5s.1.3.2.5.2.2.4.2zM103.8 37V20.4h5.5c1.5 0 2.6.4 3.3 1.2.7.8 1.1 2 1.1 3.6 0 .6-.1 1.2-.2 1.7s-.3.9-.5 1.3-.5.6-.7.9-.6.4-1 .6c-.4.1-.8.2-1.1.3s-.8.1-1.3.1h-1.4V37h-3.7zm3.6-9.6h1.2c.7 0 1.1-.2 1.3-.5.2-.3.3-.9.3-1.7v-.7c0-.2-.1-.4-.1-.6s-.2-.4-.3-.5c-.1-.1-.3-.2-.5-.3-.2-.1-.5-.1-.8-.1h-1.2v4.4zM115.4 37V20.4h7.5v2.5h-3.8V27h2.9v2.6h-2.9v5h3.8V37h-7.5zM124.6 37V20.4h4.5c.7 0 1.3 0 1.9.1.5.1 1 .2 1.5.4s.9.5 1.2.8c.3.3.5.7.7 1.3s.3 1.1.3 1.8c0 1.1-.1 2-.4 2.6s-.8 1.2-1.6 1.5l2.3 8h-3.8l-1.8-7.4h-1V37h-3.8zm3.7-9.5h.9c.7 0 1.3-.2 1.6-.6.3-.4.5-1 .5-1.8s-.1-1.3-.4-1.7c-.3-.4-.8-.6-1.4-.6h-1.1v4.7z"/></g><g><path class="st1" d="M10.8 37.2c-1.7 0-3.1-.2-4.3-.5-1.2-.3-2.3-.8-3.1-1.5-.8-.6-1.5-1.4-2-2.4S.5 30.7.3 29.5c-.2-1.3-.3-2.7-.3-4.3V.2h8v27.6c0 .4.1.8.2 1.3s.3.9.5 1.2c.2.3.5.5.8.7.4.2.8.3 1.3.3s.9-.1 1.3-.3c.4-.2.6-.4.8-.7.2-.3.3-.7.5-1.2.1-.5.2-.9.2-1.3V.3h8v25c0 2-.2 3.7-.5 5.2-.3 1.4-.9 2.7-1.7 3.7s-1.9 1.8-3.3 2.3c-1.5.4-3.3.7-5.3.7zM26.7 36.7V.3h8v36.4h-8z"/></g></svg>