<svg xmlns="http://www.w3.org/2000/svg" viewBox="0 0 203.7 37.5"><path d="M110.5 16.8V.2h4.2c1.1 0 2 .1 2.7.3.7.2 1.3.5 1.7 1 .4.4.7 1 .9 1.6s.3 1.4.3 2.4v6c0 1-.1 1.8-.3 2.4-.2.7-.5 1.2-.9 1.7s-1 .8-1.7 1c-.7.2-1.6.3-2.7.3l-4.2-.1zm3.7-2.5h.5c.3 0 .5 0 .7-.1.2 0 .4-.1.5-.2l.3-.3c.1-.1.1-.3.2-.5 0-.2.1-.4.1-.6V3.9c0-.2-.1-.4-.2-.6-.2-.2-.4-.3-.6-.4s-.6-.1-1-.1h-.6l.1 11.5zm8.3 2.5V.2h7.5v2.5h-3.8v4.1h2.9v2.6h-2.9v5h3.8v2.5h-7.5v-.1zm13.6.3c-1.6 0-2.7-.4-3.5-1.3-.8-.9-1.2-2.2-1.2-4l3.1-.5c0 1 .1 1.8.4 2.3.3.5.6.7 1.1.7.6 0 .9-.4.9-1.2 0-.4-.1-.9-.2-1.2-.2-.4-.4-.7-.6-1s-.6-.6-1-.9l-1.5-1.3c-.4-.3-.6-.6-.9-.8-.2-.3-.5-.6-.7-.9s-.4-.7-.5-1.2c-.1-.4-.2-.9-.2-1.4 0-1.4.4-2.5 1.2-3.2s2-1.1 3.4-1.1c.5 0 .9.1 1.3.2s.7.2 1 .4c.3.2.5.4.7.7.2.3.4.5.5.8l.3.9c.1.3.1.6.2.9 0 .3.1.6.1.9l-3.2.4v-.7c0-.2 0-.4-.1-.6-.1-.2.1-.5 0-.7s-.1-.2-.2-.3-.2-.2-.3-.2-.3-.1-.4-.1c-.3 0-.6.1-.7.4-.2.3-.3.6-.3.9 0 .3 0 .6.1.9s.2.5.4.7l.5.5.6.6 1.4 1.2c.4.3.7.7 1 1 .3.3.5.7.8 1.1.3.4.4.8.6 1.3.1.5.2 1 .2 1.6 0 1.2-.4 2.2-1.2 3-.8.8-1.8 1.2-3.1 1.2zm6.1-.3V.2h3.7v16.6h-3.7zm10.5.3c-.8 0-1.6-.1-2.2-.4s-1.1-.7-1.4-1.2c-.3-.5-.6-1.1-.8-1.8-.2-.7-.2-1.5-.2-2.4V5.8c0-.7.1-1.4.2-2 .1-.6.3-1.1.5-1.6s.5-.9.9-1.2.9-.6 1.4-.7c.6-.2 1.3-.3 2-.3s1.4.1 1.9.2c.6.2 1 .4 1.4.6.4.3.7.6.9 1 .2.4.4.9.5 1.3.1.5.1 1 .1 1.6v1.1h-3.6V4c0-.1 0-.3-.1-.5 0-.2-.1-.3-.2-.5-.1-.1-.2-.2-.4-.3s-.3-.1-.6-.1c-.2 0-.4 0-.6.1s-.3.2-.4.3c-.1.1-.2.3-.2.5s-.1.4-.1.6v8.2c0 .7.1 1.2.3 1.6s.6.6 1.1.6c1 0 1.4-.7 1.4-2.2v-1.9H153V8.2h4.8v8.6h-2.4l-.2-1.4c-.3 1.1-1.2 1.7-2.5 1.7zm7.6-.3V.2h2.6l3.4 8v-8h3v16.6h-2.5l-3.4-8.6v8.6h-3.1zm11.4 0V.2h7.5v2.5h-3.8v4.1h2.9v2.6h-2.9v5h3.8v2.5h-7.5v-.1zm9.2 0V.2h4.5c.7 0 1.3 0 1.9.1.5.1 1 .2 1.5.4s.9.5 1.2.8c.3.3.5.7.7 1.3.2.6.3 1.1.3 1.8 0 1.1-.1 2-.4 2.6s-.8 1.2-1.6 1.5l2.3 8h-3.8l-1.8-7.4h-1v7.4l-3.8.1zm3.7-9.5h.9c.7 0 1.3-.2 1.6-.6.3-.4.5-1 .5-1.8s-.1-1.3-.4-1.7-.8-.6-1.4-.6h-1.1v4.7h-.1zM110.5 37V20.4h4.2c1.1 0 2 .1 2.7.3.7.2 1.3.5 1.7 1 .4.4.7 1 .9 1.6s.3 1.4.3 2.4v6c0 1-.1 1.8-.3 2.4s-.5 1.2-.9 1.7-1 .8-1.7 1c-.7.1-1.6.2-2.7.2h-4.2zm3.7-2.5h.5c.3 0 .5 0 .7-.1.2 0 .4-.1.5-.2l.3-.3c.1-.1.1-.3.2-.5 0-.2.1-.4.1-.6V24c0-.2-.1-.4-.2-.6s-.3-.3-.5-.4h-1.7l.1 11.5zm8.3 2.5V20.4h7.5v2.5h-3.8V27h2.9v2.6h-2.9v5h3.8V37h-7.5zm11.4 0l-3-16.6h3.1l1.8 11.2 1.7-11.2h3.3L137.7 37h-3.8zm8.5 0V20.4h7.5v2.5h-3.8V27h2.9v2.6h-2.9v5h3.8V37h-7.5zm9.2 0V20.4h3.7v14.1h3.8V37h-7.5zm13.7.2c-.9 0-1.7-.1-2.4-.4-.7-.2-1.2-.6-1.6-1.1-.4-.5-.7-1.1-.8-1.7-.2-.7-.3-1.4-.3-2.3v-6.1c0-.9.1-1.7.3-2.3.2-.7.4-1.2.8-1.7s.9-.8 1.6-1.1c.7-.2 1.4-.4 2.4-.4 1.8 0 3.1.5 3.9 1.4s1.2 2.3 1.2 4.1v6.1c0 1.8-.4 3.2-1.2 4.1-.9 1-2.2 1.4-3.9 1.4zm-.6-2.7c.2.1.3.1.6.1.2 0 .4 0 .6-.1s.3-.2.4-.3c.1-.1.2-.3.2-.5s.1-.4.1-.5V24c0-.2 0-.3-.1-.5s-.1-.3-.2-.4c-.1-.1-.2-.2-.4-.3s-.4-.1-.6-.1c-.2 0-.4 0-.6.1s-.3.2-.4.3c-.1.1-.2.3-.2.5s-.1.4-.1.5v9.2c0 .2 0 .3.1.5s.1.3.2.5.2.2.4.2zm7.8 2.5V20.4h5.5c1.5 0 2.6.4 3.3 1.2.7.8 1.1 2 1.1 3.6 0 .6-.1 1.2-.2 1.7s-.3.9-.5 1.3-.5.6-.7.9c-.2.3-.6.4-1 .6-.4.1-.8.2-1.1.3s-.8.1-1.3.1h-1.4V37h-3.7zm3.6-9.6h1.2c.7 0 1.1-.2 1.3-.5.2-.3.3-.9.3-1.7v-.7c0-.2-.1-.4-.1-.6s-.2-.4-.3-.5c-.1-.1-.3-.2-.5-.3-.2-.1-.5-.1-.8-.1H176l.1 4.4zm8 9.6V20.4h7.5v2.5h-3.8V27h2.9v2.6h-2.9v5h3.8V37h-7.5zm9.2 0V20.4h4.5c.7 0 1.3 0 1.9.1.5.1 1 .2 1.5.4s.9.5 1.2.8.5.7.7 1.3.3 1.1.3 1.8c0 1.1-.1 2-.4 2.6s-.8 1.2-1.6 1.5l2.3 8h-3.8l-1.8-7.4h-1V37h-3.8zm3.7-9.5h.9c.7 0 1.3-.2 1.6-.6s.5-1 .5-1.8-.1-1.3-.4-1.7c-.3-.4-.8-.6-1.4-.6h-1.1v4.7h-.1z" fill="#ff5722"/><path d="M4.3 36.1c-1.6-.9-2.7-2.2-3.4-3.9-.6-1.7-1-3.9-1-6.6V.3h8v26.5c0 1.5.2 2.7.6 3.5.4.9 1.1 1.3 2.3 1.3 1.1 0 1.9-.4 2.3-1.3.4-.9.5-2.1.5-3.5V.3h8v25.3c0 2.7-.3 4.9-1 6.6s-1.8 3-3.4 3.9c-1.6.9-3.7 1.3-6.5 1.3-2.6.1-4.8-.4-6.4-1.3zm27.3-18.9L24.8.3h7.6l4 9.9L39.7.3h6.7l-6.4 19 7.1 17.6h-7.6L35.1 26l-3.9 10.9h-6.7l7.1-19.7zM60.6.3h4L53.3 36.9h-3.9L60.6.3zm12.7 35.8c-1.6-.9-2.7-2.2-3.4-3.9-.6-1.7-1-3.9-1-6.6V.3h8v26.5c0 1.5.2 2.7.6 3.5.4.9 1.1 1.3 2.3 1.3 1.1 0 1.9-.4 2.3-1.3.4-.9.5-2.1.5-3.5V.3h8v25.3c0 2.7-.3 4.9-1 6.6s-1.8 3-3.4 3.9c-1.6.9-3.7 1.3-6.5 1.3-2.6.1-4.8-.4-6.4-1.3zM95.9.3h8.1v36.6h-8.1V.3z" fill="#212121"/></svg>