<?xml version="1.0" encoding="utf-8"?>
<!-- Generator: Adobe Illustrator 19.1.0, SVG Export Plug-In . SVG Version: 6.00 Build 0)  -->
<svg version="1.1" id="Layer_1" xmlns="http://www.w3.org/2000/svg" xmlns:xlink="http://www.w3.org/1999/xlink" x="0px" y="0px"
	 viewBox="0 0 134.9 37.2" style="enable-background:new 0 0 134.9 37.2;" xml:space="preserve">
<style type="text/css">
	.st0{fill:#FF5722;}
	.st1{fill:#212121;}
</style>
<g>
	<g>
		<path class="st0" d="M41.8,16.8V0.2H46c1.1,0,2,0.1,2.7,0.3c0.7,0.2,1.3,0.5,1.7,1c0.4,0.4,0.7,1,0.9,1.6c0.2,0.6,0.3,1.4,0.3,2.4
			v6c0,1-0.1,1.8-0.3,2.4c-0.2,0.7-0.5,1.2-0.9,1.7c-0.4,0.5-1,0.8-1.7,1s-1.6,0.3-2.7,0.3H41.8z M45.5,14.3H46c0.3,0,0.5,0,0.7-0.1
			c0.2,0,0.4-0.1,0.5-0.2c0.1-0.1,0.2-0.2,0.3-0.3c0.1-0.1,0.1-0.3,0.2-0.5c0-0.2,0.1-0.4,0.1-0.6c0-0.2,0-0.4,0-0.7V4.9
			c0-0.4,0-0.7,0-1c0-0.2-0.1-0.4-0.2-0.6C47.4,3.1,47.2,3,47,2.9s-0.6-0.1-1-0.1h-0.6V14.3z"/>
		<path class="st0" d="M53.8,16.8V0.2h7.5v2.5h-3.8v4.1h2.9v2.6h-2.9v5h3.8v2.5H53.8z"/>
		<path class="st0" d="M67.4,17.1c-1.6,0-2.7-0.4-3.5-1.3s-1.2-2.2-1.2-4l3.1-0.5c0,1,0.1,1.8,0.4,2.3s0.6,0.7,1.1,0.7
			c0.6,0,0.9-0.4,0.9-1.2c0-0.4-0.1-0.9-0.2-1.2c-0.2-0.4-0.4-0.7-0.6-1c-0.2-0.3-0.6-0.6-1-0.9l-1.5-1.3c-0.4-0.3-0.6-0.6-0.9-0.8
			c-0.2-0.3-0.5-0.6-0.7-0.9s-0.4-0.7-0.5-1.2c-0.1-0.4-0.2-0.9-0.2-1.4c0-1.4,0.4-2.5,1.2-3.2s2-1.1,3.4-1.1c0.5,0,0.9,0.1,1.3,0.2
			c0.4,0.1,0.7,0.2,1,0.4c0.3,0.2,0.5,0.4,0.7,0.7c0.2,0.3,0.4,0.5,0.5,0.8c0.1,0.3,0.2,0.6,0.3,0.9c0.1,0.3,0.1,0.6,0.2,0.9
			c0,0.3,0.1,0.6,0.1,0.9l-3.2,0.4c0-0.3,0-0.5,0-0.7c0-0.2,0-0.4-0.1-0.6S68.1,3.5,68,3.3S67.9,3.1,67.8,3
			c-0.1-0.1-0.2-0.2-0.3-0.2s-0.3-0.1-0.4-0.1c-0.3,0-0.6,0.1-0.7,0.4c-0.2,0.3-0.3,0.6-0.3,0.9c0,0.3,0,0.6,0.1,0.9
			c0.1,0.3,0.2,0.5,0.4,0.7C66.8,5.8,67,6,67.1,6.1s0.3,0.3,0.6,0.6l1.4,1.2c0.4,0.3,0.7,0.7,1,1c0.3,0.3,0.5,0.7,0.8,1.1
			s0.4,0.8,0.6,1.3c0.1,0.5,0.2,1,0.2,1.6c0,1.2-0.4,2.2-1.2,3C69.7,16.7,68.7,17.1,67.4,17.1z"/>
		<path class="st0" d="M73.5,16.8V0.2h3.7v16.6H73.5z"/>
		<path class="st0" d="M84,17.1c-0.8,0-1.6-0.1-2.2-0.4s-1.1-0.7-1.4-1.2c-0.3-0.5-0.6-1.1-0.8-1.8c-0.2-0.7-0.2-1.5-0.2-2.4V5.8
			c0-0.7,0.1-1.4,0.2-2c0.1-0.6,0.3-1.1,0.5-1.6C80.3,1.7,80.6,1.3,81,1c0.4-0.3,0.9-0.6,1.4-0.7C83,0.1,83.7,0,84.4,0
			c0.7,0,1.4,0.1,1.9,0.2c0.6,0.2,1,0.4,1.4,0.6c0.4,0.3,0.7,0.6,0.9,1c0.2,0.4,0.4,0.9,0.5,1.3c0.1,0.5,0.1,1,0.1,1.6v1.1h-3.6V4.6
			c0-0.3,0-0.5,0-0.6s0-0.3-0.1-0.5c0-0.2-0.1-0.3-0.2-0.5c-0.1-0.1-0.2-0.2-0.4-0.3s-0.3-0.1-0.6-0.1c-0.2,0-0.4,0-0.6,0.1
			c-0.2,0.1-0.3,0.2-0.4,0.3c-0.1,0.1-0.2,0.3-0.2,0.5s-0.1,0.4-0.1,0.6c0,0.2,0,0.4,0,0.6v7.6c0,0.7,0.1,1.2,0.3,1.6
			s0.6,0.6,1.1,0.6c1,0,1.4-0.7,1.4-2.2v-1.9h-1.5V8.2h4.8v8.6h-2.4l-0.2-1.4C86.2,16.5,85.3,17.1,84,17.1z"/>
		<path class="st0" d="M91.6,16.8V0.2h2.6l3.4,8v-8h3v16.6h-2.5l-3.4-8.6v8.6H91.6z"/>
		<path class="st0" d="M103,16.8V0.2h7.5v2.5h-3.8v4.1h2.9v2.6h-2.9v5h3.8v2.5H103z"/>
		<path class="st0" d="M112.2,16.8V0.2h4.5c0.7,0,1.3,0,1.9,0.1c0.5,0.1,1,0.2,1.5,0.4c0.5,0.2,0.9,0.5,1.2,0.8
			c0.3,0.3,0.5,0.7,0.7,1.3s0.3,1.1,0.3,1.8c0,1.1-0.1,2-0.4,2.6s-0.8,1.2-1.6,1.5l2.3,8h-3.8l-1.8-7.4h-1v7.4H112.2z M115.9,7.3
			h0.9c0.7,0,1.3-0.2,1.6-0.6c0.3-0.4,0.5-1,0.5-1.8c0-0.8-0.1-1.3-0.4-1.7c-0.3-0.4-0.8-0.6-1.4-0.6h-1.1V7.3z"/>
	</g>
</g>
<g>
	<g>
		<path class="st0" d="M41.8,37V20.4H46c1.1,0,2,0.1,2.7,0.3s1.3,0.5,1.7,1c0.4,0.4,0.7,1,0.9,1.6s0.3,1.4,0.3,2.4v6
			c0,1-0.1,1.8-0.3,2.4s-0.5,1.2-0.9,1.7c-0.4,0.5-1,0.8-1.7,1C48,36.9,47.1,37,46,37H41.8z M45.5,34.5H46c0.3,0,0.5,0,0.7-0.1
			c0.2,0,0.4-0.1,0.5-0.2c0.1-0.1,0.2-0.2,0.3-0.3c0.1-0.1,0.1-0.3,0.2-0.5c0-0.2,0.1-0.4,0.1-0.6s0-0.4,0-0.7v-7.1c0-0.4,0-0.7,0-1
			c0-0.2-0.1-0.4-0.2-0.6c-0.1-0.2-0.3-0.3-0.5-0.4C46.7,23,46.4,23,46,23h-0.6V34.5z"/>
		<path class="st0" d="M53.8,37V20.4h7.5v2.5h-3.8V27h2.9v2.6h-2.9v5h3.8V37H53.8z"/>
		<path class="st0" d="M65.2,37l-3-16.6h3.1l1.8,11.2l1.7-11.2h3.3L69,37H65.2z"/>
		<path class="st0" d="M73.7,37V20.4h7.5v2.5h-3.8V27h2.9v2.6h-2.9v5h3.8V37H73.7z"/>
		<path class="st0" d="M82.9,37V20.4h3.7v14.1h3.8V37H82.9z"/>
		<path class="st0" d="M96.6,37.2c-0.9,0-1.7-0.1-2.4-0.4c-0.7-0.2-1.2-0.6-1.6-1.1c-0.4-0.5-0.7-1.1-0.8-1.7
			c-0.2-0.7-0.3-1.4-0.3-2.3v-6.1c0-0.9,0.1-1.7,0.3-2.3c0.2-0.7,0.4-1.2,0.8-1.7c0.4-0.5,0.9-0.8,1.6-1.1c0.7-0.2,1.4-0.4,2.4-0.4
			c1.8,0,3.1,0.5,3.9,1.4c0.8,0.9,1.2,2.3,1.2,4.1v6.1c0,1.8-0.4,3.2-1.2,4.1C99.6,36.8,98.3,37.2,96.6,37.2z M96,34.5
			c0.2,0.1,0.3,0.1,0.6,0.1c0.2,0,0.4,0,0.6-0.1c0.2-0.1,0.3-0.2,0.4-0.3s0.2-0.3,0.2-0.5c0-0.2,0.1-0.4,0.1-0.5c0-0.2,0-0.4,0-0.6
			v-8c0-0.2,0-0.4,0-0.6c0-0.2,0-0.3-0.1-0.5s-0.1-0.3-0.2-0.4c-0.1-0.1-0.2-0.2-0.4-0.3s-0.4-0.1-0.6-0.1c-0.2,0-0.4,0-0.6,0.1
			c-0.2,0.1-0.3,0.2-0.4,0.3s-0.2,0.3-0.2,0.5s-0.1,0.4-0.1,0.5c0,0.2,0,0.3,0,0.6v8c0,0.2,0,0.4,0,0.6c0,0.2,0,0.3,0.1,0.5
			s0.1,0.3,0.2,0.5S95.8,34.5,96,34.5z"/>
		<path class="st0" d="M103.8,37V20.4h5.5c1.5,0,2.6,0.4,3.3,1.2c0.7,0.8,1.1,2,1.1,3.6c0,0.6-0.1,1.2-0.2,1.7s-0.3,0.9-0.5,1.3
			s-0.5,0.6-0.7,0.9s-0.6,0.4-1,0.6c-0.4,0.1-0.8,0.2-1.1,0.3s-0.8,0.1-1.3,0.1h-1.4V37H103.8z M107.4,27.4h1.2
			c0.7,0,1.1-0.2,1.3-0.5c0.2-0.3,0.3-0.9,0.3-1.7c0-0.3,0-0.5,0-0.7c0-0.2-0.1-0.4-0.1-0.6s-0.2-0.4-0.3-0.5
			c-0.1-0.1-0.3-0.2-0.5-0.3c-0.2-0.1-0.5-0.1-0.8-0.1h-1.2V27.4z"/>
		<path class="st0" d="M115.4,37V20.4h7.5v2.5h-3.8V27h2.9v2.6h-2.9v5h3.8V37H115.4z"/>
		<path class="st0" d="M124.6,37V20.4h4.5c0.7,0,1.3,0,1.9,0.1c0.5,0.1,1,0.2,1.5,0.4c0.5,0.2,0.9,0.5,1.2,0.8
			c0.3,0.3,0.5,0.7,0.7,1.3s0.3,1.1,0.3,1.8c0,1.1-0.1,2-0.4,2.6s-0.8,1.2-1.6,1.5l2.3,8h-3.8l-1.8-7.4h-1V37H124.6z M128.3,27.5
			h0.9c0.7,0,1.3-0.2,1.6-0.6c0.3-0.4,0.5-1,0.5-1.8c0-0.8-0.1-1.3-0.4-1.7c-0.3-0.4-0.8-0.6-1.4-0.6h-1.1V27.5z"/>
	</g>
</g>
<g>
	<path class="st1" d="M10.8,37.2c-1.7,0-3.1-0.2-4.3-0.5c-1.2-0.3-2.3-0.8-3.1-1.5c-0.8-0.6-1.5-1.4-2-2.4c-0.5-1-0.9-2.1-1.1-3.3
		C0.1,28.2,0,26.8,0,25.2v-25h8v26.1c0,0.6,0,1.1,0,1.5c0,0.4,0.1,0.8,0.2,1.3c0.1,0.5,0.3,0.9,0.5,1.2c0.2,0.3,0.5,0.5,0.8,0.7
		c0.4,0.2,0.8,0.3,1.3,0.3s0.9-0.1,1.3-0.3c0.4-0.2,0.6-0.4,0.8-0.7c0.2-0.3,0.3-0.7,0.5-1.2c0.1-0.5,0.2-0.9,0.2-1.3s0-0.9,0-1.5
		V0.3h8v25c0,2-0.2,3.7-0.5,5.2c-0.3,1.4-0.9,2.7-1.7,3.7s-1.9,1.8-3.3,2.3C14.6,36.9,12.8,37.2,10.8,37.2z"/>
	<path class="st1" d="M26.7,36.7V0.3h8v36.4H26.7z"/>
</g>
</svg>
