<?xml version="1.0" encoding="utf-8"?>
<!-- Generator: Adobe Illustrator 21.1.0, SVG Export Plug-In . SVG Version: 6.00 Build 0)  -->
<svg version="1.1" id="Layer_1" xmlns="http://www.w3.org/2000/svg" xmlns:xlink="http://www.w3.org/1999/xlink" x="0px" y="0px"
	 viewBox="0 0 144 37.2" style="enable-background:new 0 0 144 37.2;" xml:space="preserve">
<style type="text/css">
	.st0{fill:#FF5722;}
	.st1{display:none;}
	.st2{display:inline;fill:#212121;}
	.st3{fill:#212121;}
</style>
<g>
	<g>
		<path class="st0" d="M50.8,16.8V0.2H55c1.1,0,2,0.1,2.7,0.3s1.3,0.5,1.7,1c0.4,0.4,0.7,1,0.9,1.6s0.3,1.4,0.3,2.4v6
			c0,1-0.1,1.8-0.3,2.4c-0.2,0.7-0.5,1.2-0.9,1.7c-0.4,0.5-1,0.8-1.7,1s-1.6,0.3-2.7,0.3L50.8,16.8L50.8,16.8z M54.5,14.3H55
			c0.3,0,0.5,0,0.7-0.1c0.2,0,0.4-0.1,0.5-0.2c0.1-0.1,0.2-0.2,0.3-0.3s0.1-0.3,0.2-0.5c0-0.2,0.1-0.4,0.1-0.6c0-0.2,0-0.4,0-0.7v-7
			c0-0.4,0-0.7,0-1c0-0.2-0.1-0.4-0.2-0.6C56.4,3.1,56.2,3,56,2.9s-0.6-0.1-1-0.1h-0.6L54.5,14.3L54.5,14.3z"/>
		<path class="st0" d="M62.8,16.8V0.2h7.5v2.5h-3.8v4.1h2.9v2.6h-2.9v5h3.8v2.5h-7.5V16.8z"/>
		<path class="st0" d="M76.4,17.1c-1.6,0-2.7-0.4-3.5-1.3s-1.2-2.2-1.2-4l3.1-0.5c0,1,0.1,1.8,0.4,2.3s0.6,0.7,1.1,0.7
			c0.6,0,0.9-0.4,0.9-1.2c0-0.4-0.1-0.9-0.2-1.2c-0.2-0.4-0.4-0.7-0.6-1s-0.6-0.6-1-0.9l-1.5-1.3c-0.4-0.3-0.6-0.6-0.9-0.8
			c-0.2-0.3-0.5-0.6-0.7-0.9c-0.2-0.3-0.4-0.7-0.5-1.2c-0.1-0.4-0.2-0.9-0.2-1.4c0-1.4,0.4-2.5,1.2-3.2c0.8-0.7,2-1.1,3.4-1.1
			c0.5,0,0.9,0.1,1.3,0.2s0.7,0.2,1,0.4s0.5,0.4,0.7,0.7s0.4,0.5,0.5,0.8s0.2,0.6,0.3,0.9c0.1,0.3,0.1,0.6,0.2,0.9
			c0,0.3,0.1,0.6,0.1,0.9l-3.2,0.4c0-0.3,0-0.5,0-0.7s0-0.4-0.1-0.6s0.1-0.5,0-0.7S76.9,3.1,76.8,3s-0.2-0.2-0.3-0.2
			s-0.3-0.1-0.4-0.1c-0.3,0-0.6,0.1-0.7,0.4c-0.2,0.3-0.3,0.6-0.3,0.9c0,0.3,0,0.6,0.1,0.9s0.2,0.5,0.4,0.7C75.8,5.8,76,6,76.1,6.1
			s0.3,0.3,0.6,0.6l1.4,1.2c0.4,0.3,0.7,0.7,1,1s0.5,0.7,0.8,1.1s0.4,0.8,0.6,1.3c0.1,0.5,0.2,1,0.2,1.6c0,1.2-0.4,2.2-1.2,3
			C78.7,16.7,77.7,17.1,76.4,17.1z"/>
		<path class="st0" d="M82.5,16.8V0.2h3.7v16.6C86.2,16.8,82.5,16.8,82.5,16.8z"/>
		<path class="st0" d="M93,17.1c-0.8,0-1.6-0.1-2.2-0.4s-1.1-0.7-1.4-1.2c-0.3-0.5-0.6-1.1-0.8-1.8c-0.2-0.7-0.2-1.5-0.2-2.4V5.8
			c0-0.7,0.1-1.4,0.2-2s0.3-1.1,0.5-1.6C89.3,1.7,89.6,1.3,90,1s0.9-0.6,1.4-0.7C92,0.1,92.7,0,93.4,0c0.7,0,1.4,0.1,1.9,0.2
			c0.6,0.2,1,0.4,1.4,0.6c0.4,0.3,0.7,0.6,0.9,1c0.2,0.4,0.4,0.9,0.5,1.3c0.1,0.5,0.1,1,0.1,1.6v1.1h-3.6V4.6c0-0.3,0-0.5,0-0.6
			s0-0.3-0.1-0.5c0-0.2-0.1-0.3-0.2-0.5c-0.1-0.1-0.2-0.2-0.4-0.3s-0.3-0.1-0.6-0.1c-0.2,0-0.4,0-0.6,0.1S92.4,2.9,92.3,3
			s-0.2,0.3-0.2,0.5S92,3.9,92,4.1s0,0.4,0,0.6v7.6c0,0.7,0.1,1.2,0.3,1.6s0.6,0.6,1.1,0.6c1,0,1.4-0.7,1.4-2.2v-1.9h-1.5V8.2h4.8
			v8.6h-2.4l-0.2-1.4C95.2,16.5,94.3,17.1,93,17.1z"/>
		<path class="st0" d="M100.6,16.8V0.2h2.6l3.4,8v-8h3v16.6h-2.5l-3.4-8.6v8.6H100.6z"/>
		<path class="st0" d="M112,16.8V0.2h7.5v2.5h-3.8v4.1h2.9v2.6h-2.9v5h3.8v2.5H112V16.8z"/>
		<path class="st0" d="M121.2,16.8V0.2h4.5c0.7,0,1.3,0,1.9,0.1c0.5,0.1,1,0.2,1.5,0.4s0.9,0.5,1.2,0.8c0.3,0.3,0.5,0.7,0.7,1.3
			c0.2,0.6,0.3,1.1,0.3,1.8c0,1.1-0.1,2-0.4,2.6s-0.8,1.2-1.6,1.5l2.3,8h-3.8L126,9.3h-1v7.4L121.2,16.8L121.2,16.8z M124.9,7.3h0.9
			c0.7,0,1.3-0.2,1.6-0.6c0.3-0.4,0.5-1,0.5-1.8s-0.1-1.3-0.4-1.7s-0.8-0.6-1.4-0.6H125L124.9,7.3L124.9,7.3z"/>
	</g>
</g>
<g>
	<g>
		<path class="st0" d="M50.8,37V20.4H55c1.1,0,2,0.1,2.7,0.3s1.3,0.5,1.7,1c0.4,0.4,0.7,1,0.9,1.6s0.3,1.4,0.3,2.4v6
			c0,1-0.1,1.8-0.3,2.4s-0.5,1.2-0.9,1.7s-1,0.8-1.7,1C57,36.9,56.1,37,55,37H50.8z M54.5,34.5H55c0.3,0,0.5,0,0.7-0.1
			c0.2,0,0.4-0.1,0.5-0.2c0.1-0.1,0.2-0.2,0.3-0.3s0.1-0.3,0.2-0.5c0-0.2,0.1-0.4,0.1-0.6s0-0.4,0-0.7V25c0-0.4,0-0.7,0-1
			c0-0.2-0.1-0.4-0.2-0.6c-0.1-0.2-0.3-0.3-0.5-0.4c-0.4,0-0.7,0-1.1,0h-0.6L54.5,34.5L54.5,34.5z"/>
		<path class="st0" d="M62.8,37V20.4h7.5v2.5h-3.8V27h2.9v2.6h-2.9v5h3.8V37H62.8z"/>
		<path class="st0" d="M74.2,37l-3-16.6h3.1l1.8,11.2l1.7-11.2h3.3L78,37H74.2z"/>
		<path class="st0" d="M82.7,37V20.4h7.5v2.5h-3.8V27h2.9v2.6h-2.9v5h3.8V37H82.7z"/>
		<path class="st0" d="M91.9,37V20.4h3.7v14.1h3.8V37H91.9z"/>
		<path class="st0" d="M105.6,37.2c-0.9,0-1.7-0.1-2.4-0.4c-0.7-0.2-1.2-0.6-1.6-1.1s-0.7-1.1-0.8-1.7c-0.2-0.7-0.3-1.4-0.3-2.3
			v-6.1c0-0.9,0.1-1.7,0.3-2.3c0.2-0.7,0.4-1.2,0.8-1.7s0.9-0.8,1.6-1.1c0.7-0.2,1.4-0.4,2.4-0.4c1.8,0,3.1,0.5,3.9,1.4
			s1.2,2.3,1.2,4.1v6.1c0,1.8-0.4,3.2-1.2,4.1C108.6,36.8,107.3,37.2,105.6,37.2z M105,34.5c0.2,0.1,0.3,0.1,0.6,0.1
			c0.2,0,0.4,0,0.6-0.1s0.3-0.2,0.4-0.3s0.2-0.3,0.2-0.5s0.1-0.4,0.1-0.5c0-0.2,0-0.4,0-0.6v-8c0-0.2,0-0.4,0-0.6s0-0.3-0.1-0.5
			s-0.1-0.3-0.2-0.4s-0.2-0.2-0.4-0.3s-0.4-0.1-0.6-0.1s-0.4,0-0.6,0.1s-0.3,0.2-0.4,0.3s-0.2,0.3-0.2,0.5s-0.1,0.4-0.1,0.5
			c0,0.2,0,0.3,0,0.6v8c0,0.2,0,0.4,0,0.6c0,0.2,0,0.3,0.1,0.5s0.1,0.3,0.2,0.5S104.8,34.5,105,34.5z"/>
		<path class="st0" d="M112.8,37V20.4h5.5c1.5,0,2.6,0.4,3.3,1.2c0.7,0.8,1.1,2,1.1,3.6c0,0.6-0.1,1.2-0.2,1.7s-0.3,0.9-0.5,1.3
			s-0.5,0.6-0.7,0.9s-0.6,0.4-1,0.6c-0.4,0.1-0.8,0.2-1.1,0.3s-0.8,0.1-1.3,0.1h-1.4V37H112.8z M116.4,27.4h1.2
			c0.7,0,1.1-0.2,1.3-0.5c0.2-0.3,0.3-0.9,0.3-1.7c0-0.3,0-0.5,0-0.7s-0.1-0.4-0.1-0.6s-0.2-0.4-0.3-0.5c-0.1-0.1-0.3-0.2-0.5-0.3
			c-0.2-0.1-0.5-0.1-0.8-0.1h-1.2L116.4,27.4L116.4,27.4z"/>
		<path class="st0" d="M124.4,37V20.4h7.5v2.5h-3.8V27h2.9v2.6h-2.9v5h3.8V37H124.4z"/>
		<path class="st0" d="M133.6,37V20.4h4.5c0.7,0,1.3,0,1.9,0.1c0.5,0.1,1,0.2,1.5,0.4c0.5,0.2,0.9,0.5,1.2,0.8s0.5,0.7,0.7,1.3
			s0.3,1.1,0.3,1.8c0,1.1-0.1,2-0.4,2.6s-0.8,1.2-1.6,1.5l2.3,8h-3.8l-1.8-7.4h-1V37H133.6z M137.3,27.5h0.9c0.7,0,1.3-0.2,1.6-0.6
			s0.5-1,0.5-1.8s-0.1-1.3-0.4-1.7c-0.3-0.4-0.8-0.6-1.4-0.6h-1.1v4.7H137.3z"/>
	</g>
</g>
<g class="st1">
	<path class="st2" d="M19.8,37.2c-1.7,0-3.1-0.2-4.3-0.5s-2.3-0.8-3.1-1.5c-0.8-0.6-1.5-1.4-2-2.4s-0.9-2.1-1.1-3.3
		C9.1,28.2,9,26.8,9,25.2v-25h8v26.1c0,0.6,0,1.1,0,1.5s0.1,0.8,0.2,1.3c0.1,0.5,0.3,0.9,0.5,1.2c0.2,0.3,0.5,0.5,0.8,0.7
		c0.4,0.2,0.8,0.3,1.3,0.3s0.9-0.1,1.3-0.3c0.4-0.2,0.6-0.4,0.8-0.7c0.2-0.3,0.3-0.7,0.5-1.2c0.1-0.5,0.2-0.9,0.2-1.3s0-0.9,0-1.5
		v-26h8v25c0,2-0.2,3.7-0.5,5.2c-0.3,1.4-0.9,2.7-1.7,3.7s-1.9,1.8-3.3,2.3C23.6,36.9,21.8,37.2,19.8,37.2z"/>
	<path class="st2" d="M35.7,36.7V0.3h8v36.4H35.7z"/>
</g>
<g class="st1">
	<path class="st2" d="M33,37.1c-0.8,0-1.4-0.1-1.9-0.2c-0.5-0.1-1-0.4-1.4-0.7c-0.4-0.3-0.7-0.6-0.9-1.1s-0.4-0.9-0.5-1.5
		c-0.1-0.6-0.1-1.2-0.1-1.9V20.4h3.6v11.8c0,0.3,0,0.5,0,0.7s0,0.4,0.1,0.6c0,0.2,0.1,0.4,0.2,0.5c0.1,0.1,0.2,0.2,0.4,0.3
		c0.2,0.1,0.4,0.1,0.6,0.1s0.4,0,0.6-0.1s0.3-0.2,0.4-0.3c0.1-0.1,0.1-0.3,0.2-0.5c0-0.2,0.1-0.4,0.1-0.6s0-0.4,0-0.7V20.4h3.6v11.3
		c0,0.9-0.1,1.7-0.2,2.3c-0.1,0.6-0.4,1.2-0.8,1.7c-0.4,0.5-0.9,0.8-1.5,1C34.7,37,33.9,37.1,33,37.1z"/>
	<path class="st2" d="M40.1,36.9V20.4h3.6v16.4H40.1z"/>
</g>
<g>
	<path class="st3" d="M4.3,35.8c-1.6-0.9-2.7-2.2-3.3-3.9c-0.6-1.7-1-3.9-1-6.6V0.2h8v26.3c0,1.5,0.2,2.6,0.6,3.5
		c0.4,0.9,1.1,1.3,2.3,1.3c1.1,0,1.9-0.4,2.2-1.3c0.4-0.9,0.5-2,0.5-3.5V0.2h8v25.1c0,2.7-0.3,4.9-1,6.6c-0.7,1.7-1.8,3-3.3,3.9
		s-3.7,1.3-6.4,1.3C8.1,37.2,5.9,36.7,4.3,35.8z"/>
	<path class="st3" d="M31.4,17L24.6,0.2h7.6l4,9.8l3.2-9.8h6.7l-6.4,18.9l7.1,17.5h-7.5l-4.4-10.9L31,36.6h-6.6L31.4,17z"/>
</g>
</svg>
