<?xml version="1.0" encoding="utf-8"?>
<!-- Generator: Adobe Illustrator 22.0.1, SVG Export Plug-In . SVG Version: 6.00 Build 0)  -->
<svg version="1.1" id="Layer_1" xmlns="http://www.w3.org/2000/svg" xmlns:xlink="http://www.w3.org/1999/xlink" x="0px" y="0px"
	 viewBox="0 0 203.7 37.5" style="enable-background:new 0 0 203.7 37.5;" xml:space="preserve">
<style type="text/css">
	.st0{fill:#FF5722;}
	.st1{fill:#212121;}
</style>
<g>
	<g>
		<path class="st0" d="M110.5,16.8V0.2h4.2c1.1,0,2,0.1,2.7,0.3c0.7,0.2,1.3,0.5,1.7,1c0.4,0.4,0.7,1,0.9,1.6s0.3,1.4,0.3,2.4v6
			c0,1-0.1,1.8-0.3,2.4c-0.2,0.7-0.5,1.2-0.9,1.7c-0.4,0.5-1,0.8-1.7,1c-0.7,0.2-1.6,0.3-2.7,0.3L110.5,16.8L110.5,16.8z
			 M114.2,14.3h0.5c0.3,0,0.5,0,0.7-0.1c0.2,0,0.4-0.1,0.5-0.2c0.1-0.1,0.2-0.2,0.3-0.3s0.1-0.3,0.2-0.5c0-0.2,0.1-0.4,0.1-0.6
			c0-0.2,0-0.4,0-0.7v-7c0-0.4,0-0.7,0-1c0-0.2-0.1-0.4-0.2-0.6c-0.2-0.2-0.4-0.3-0.6-0.4s-0.6-0.1-1-0.1h-0.6L114.2,14.3
			L114.2,14.3z"/>
		<path class="st0" d="M122.5,16.8V0.2h7.5v2.5h-3.8v4.1h2.9v2.6h-2.9v5h3.8v2.5h-7.5V16.8z"/>
		<path class="st0" d="M136.1,17.1c-1.6,0-2.7-0.4-3.5-1.3c-0.8-0.9-1.2-2.2-1.2-4l3.1-0.5c0,1,0.1,1.8,0.4,2.3
			c0.3,0.5,0.6,0.7,1.1,0.7c0.6,0,0.9-0.4,0.9-1.2c0-0.4-0.1-0.9-0.2-1.2c-0.2-0.4-0.4-0.7-0.6-1s-0.6-0.6-1-0.9l-1.5-1.3
			c-0.4-0.3-0.6-0.6-0.9-0.8c-0.2-0.3-0.5-0.6-0.7-0.9s-0.4-0.7-0.5-1.2c-0.1-0.4-0.2-0.9-0.2-1.4c0-1.4,0.4-2.5,1.2-3.2
			s2-1.1,3.4-1.1c0.5,0,0.9,0.1,1.3,0.2c0.4,0.1,0.7,0.2,1,0.4c0.3,0.2,0.5,0.4,0.7,0.7c0.2,0.3,0.4,0.5,0.5,0.8
			c0.1,0.3,0.2,0.6,0.3,0.9s0.1,0.6,0.2,0.9c0,0.3,0.1,0.6,0.1,0.9l-3.2,0.4c0-0.3,0-0.5,0-0.7s0-0.4-0.1-0.6
			c-0.1-0.2,0.1-0.5,0-0.7s-0.1-0.2-0.2-0.3s-0.2-0.2-0.3-0.2s-0.3-0.1-0.4-0.1c-0.3,0-0.6,0.1-0.7,0.4c-0.2,0.3-0.3,0.6-0.3,0.9
			c0,0.3,0,0.6,0.1,0.9s0.2,0.5,0.4,0.7c0.2,0.2,0.4,0.4,0.5,0.5c0.1,0.1,0.3,0.3,0.6,0.6l1.4,1.2c0.4,0.3,0.7,0.7,1,1
			c0.3,0.3,0.5,0.7,0.8,1.1c0.3,0.4,0.4,0.8,0.6,1.3c0.1,0.5,0.2,1,0.2,1.6c0,1.2-0.4,2.2-1.2,3C138.4,16.7,137.4,17.1,136.1,17.1z"
			/>
		<path class="st0" d="M142.2,16.8V0.2h3.7v16.6C145.9,16.8,142.2,16.8,142.2,16.8z"/>
		<path class="st0" d="M152.7,17.1c-0.8,0-1.6-0.1-2.2-0.4s-1.1-0.7-1.4-1.2c-0.3-0.5-0.6-1.1-0.8-1.8c-0.2-0.7-0.2-1.5-0.2-2.4V5.8
			c0-0.7,0.1-1.4,0.2-2c0.1-0.6,0.3-1.1,0.5-1.6c0.2-0.5,0.5-0.9,0.9-1.2s0.9-0.6,1.4-0.7c0.6-0.2,1.3-0.3,2-0.3
			c0.7,0,1.4,0.1,1.9,0.2c0.6,0.2,1,0.4,1.4,0.6c0.4,0.3,0.7,0.6,0.9,1c0.2,0.4,0.4,0.9,0.5,1.3c0.1,0.5,0.1,1,0.1,1.6v1.1h-3.6V4.6
			c0-0.3,0-0.5,0-0.6s0-0.3-0.1-0.5c0-0.2-0.1-0.3-0.2-0.5c-0.1-0.1-0.2-0.2-0.4-0.3s-0.3-0.1-0.6-0.1c-0.2,0-0.4,0-0.6,0.1
			S152.1,2.9,152,3c-0.1,0.1-0.2,0.3-0.2,0.5s-0.1,0.4-0.1,0.6s0,0.4,0,0.6v7.6c0,0.7,0.1,1.2,0.3,1.6s0.6,0.6,1.1,0.6
			c1,0,1.4-0.7,1.4-2.2v-1.9H153V8.2h4.8v8.6h-2.4l-0.2-1.4C154.9,16.5,154,17.1,152.7,17.1z"/>
		<path class="st0" d="M160.3,16.8V0.2h2.6l3.4,8v-8h3v16.6h-2.5l-3.4-8.6v8.6H160.3z"/>
		<path class="st0" d="M171.7,16.8V0.2h7.5v2.5h-3.8v4.1h2.9v2.6h-2.9v5h3.8v2.5h-7.5V16.8z"/>
		<path class="st0" d="M180.9,16.8V0.2h4.5c0.7,0,1.3,0,1.9,0.1c0.5,0.1,1,0.2,1.5,0.4s0.9,0.5,1.2,0.8c0.3,0.3,0.5,0.7,0.7,1.3
			c0.2,0.6,0.3,1.1,0.3,1.8c0,1.1-0.1,2-0.4,2.6s-0.8,1.2-1.6,1.5l2.3,8h-3.8l-1.8-7.4h-1v7.4L180.9,16.8L180.9,16.8z M184.6,7.3
			h0.9c0.7,0,1.3-0.2,1.6-0.6c0.3-0.4,0.5-1,0.5-1.8s-0.1-1.3-0.4-1.7s-0.8-0.6-1.4-0.6h-1.1v4.7H184.6z"/>
	</g>
</g>
<g>
	<g>
		<path class="st0" d="M110.5,37V20.4h4.2c1.1,0,2,0.1,2.7,0.3c0.7,0.2,1.3,0.5,1.7,1c0.4,0.4,0.7,1,0.9,1.6s0.3,1.4,0.3,2.4v6
			c0,1-0.1,1.8-0.3,2.4s-0.5,1.2-0.9,1.7s-1,0.8-1.7,1c-0.7,0.1-1.6,0.2-2.7,0.2H110.5z M114.2,34.5h0.5c0.3,0,0.5,0,0.7-0.1
			c0.2,0,0.4-0.1,0.5-0.2c0.1-0.1,0.2-0.2,0.3-0.3s0.1-0.3,0.2-0.5c0-0.2,0.1-0.4,0.1-0.6s0-0.4,0-0.7V25c0-0.4,0-0.7,0-1
			c0-0.2-0.1-0.4-0.2-0.6s-0.3-0.3-0.5-0.4c-0.4,0-0.7,0-1.1,0h-0.6L114.2,34.5L114.2,34.5z"/>
		<path class="st0" d="M122.5,37V20.4h7.5v2.5h-3.8V27h2.9v2.6h-2.9v5h3.8V37H122.5z"/>
		<path class="st0" d="M133.9,37l-3-16.6h3.1l1.8,11.2l1.7-11.2h3.3L137.7,37H133.9z"/>
		<path class="st0" d="M142.4,37V20.4h7.5v2.5h-3.8V27h2.9v2.6h-2.9v5h3.8V37H142.4z"/>
		<path class="st0" d="M151.6,37V20.4h3.7v14.1h3.8V37H151.6z"/>
		<path class="st0" d="M165.3,37.2c-0.9,0-1.7-0.1-2.4-0.4c-0.7-0.2-1.2-0.6-1.6-1.1c-0.4-0.5-0.7-1.1-0.8-1.7
			c-0.2-0.7-0.3-1.4-0.3-2.3v-6.1c0-0.9,0.1-1.7,0.3-2.3c0.2-0.7,0.4-1.2,0.8-1.7c0.4-0.5,0.9-0.8,1.6-1.1c0.7-0.2,1.4-0.4,2.4-0.4
			c1.8,0,3.1,0.5,3.9,1.4s1.2,2.3,1.2,4.1v6.1c0,1.8-0.4,3.2-1.2,4.1C168.3,36.8,167,37.2,165.3,37.2z M164.7,34.5
			c0.2,0.1,0.3,0.1,0.6,0.1c0.2,0,0.4,0,0.6-0.1s0.3-0.2,0.4-0.3c0.1-0.1,0.2-0.3,0.2-0.5s0.1-0.4,0.1-0.5c0-0.2,0-0.4,0-0.6v-8
			c0-0.2,0-0.4,0-0.6s0-0.3-0.1-0.5c-0.1-0.2-0.1-0.3-0.2-0.4c-0.1-0.1-0.2-0.2-0.4-0.3s-0.4-0.1-0.6-0.1c-0.2,0-0.4,0-0.6,0.1
			s-0.3,0.2-0.4,0.3c-0.1,0.1-0.2,0.3-0.2,0.5S164,24,164,24.1c0,0.2,0,0.3,0,0.6v8c0,0.2,0,0.4,0,0.6c0,0.2,0,0.3,0.1,0.5
			c0.1,0.2,0.1,0.3,0.2,0.5C164.4,34.5,164.5,34.5,164.7,34.5z"/>
		<path class="st0" d="M172.5,37V20.4h5.5c1.5,0,2.6,0.4,3.3,1.2c0.7,0.8,1.1,2,1.1,3.6c0,0.6-0.1,1.2-0.2,1.7
			c-0.1,0.5-0.3,0.9-0.5,1.3c-0.2,0.4-0.5,0.6-0.7,0.9c-0.2,0.3-0.6,0.4-1,0.6c-0.4,0.1-0.8,0.2-1.1,0.3s-0.8,0.1-1.3,0.1h-1.4V37
			H172.5z M176.1,27.4h1.2c0.7,0,1.1-0.2,1.3-0.5c0.2-0.3,0.3-0.9,0.3-1.7c0-0.3,0-0.5,0-0.7s-0.1-0.4-0.1-0.6s-0.2-0.4-0.3-0.5
			c-0.1-0.1-0.3-0.2-0.5-0.3c-0.2-0.1-0.5-0.1-0.8-0.1H176L176.1,27.4L176.1,27.4z"/>
		<path class="st0" d="M184.1,37V20.4h7.5v2.5h-3.8V27h2.9v2.6h-2.9v5h3.8V37H184.1z"/>
		<path class="st0" d="M193.3,37V20.4h4.5c0.7,0,1.3,0,1.9,0.1c0.5,0.1,1,0.2,1.5,0.4c0.5,0.2,0.9,0.5,1.2,0.8s0.5,0.7,0.7,1.3
			s0.3,1.1,0.3,1.8c0,1.1-0.1,2-0.4,2.6s-0.8,1.2-1.6,1.5l2.3,8h-3.8l-1.8-7.4h-1V37H193.3z M197,27.5h0.9c0.7,0,1.3-0.2,1.6-0.6
			s0.5-1,0.5-1.8s-0.1-1.3-0.4-1.7c-0.3-0.4-0.8-0.6-1.4-0.6h-1.1v4.7H197z"/>
	</g>
</g>
<g>
	<path class="st1" d="M4.3,36.1c-1.6-0.9-2.7-2.2-3.4-3.9c-0.6-1.7-1-3.9-1-6.6V0.3h8v26.5c0,1.5,0.2,2.7,0.6,3.5
		c0.4,0.9,1.1,1.3,2.3,1.3c1.1,0,1.9-0.4,2.3-1.3c0.4-0.9,0.5-2.1,0.5-3.5V0.3h8v25.3c0,2.7-0.3,4.9-1,6.6s-1.8,3-3.4,3.9
		c-1.6,0.9-3.7,1.3-6.5,1.3C8.1,37.5,5.9,37,4.3,36.1z"/>
	<path class="st1" d="M31.6,17.2L24.8,0.3h7.6l4,9.9l3.3-9.9h6.7l-6.4,19l7.1,17.6h-7.6L35.1,26l-3.9,10.9h-6.7L31.6,17.2z"/>
	<path class="st1" d="M60.6,0.3h4L53.3,36.9h-3.9L60.6,0.3z"/>
	<path class="st1" d="M73.3,36.1c-1.6-0.9-2.7-2.2-3.4-3.9c-0.6-1.7-1-3.9-1-6.6V0.3h8v26.5c0,1.5,0.2,2.7,0.6,3.5
		c0.4,0.9,1.1,1.3,2.3,1.3c1.1,0,1.9-0.4,2.3-1.3c0.4-0.9,0.5-2.1,0.5-3.5V0.3h8v25.3c0,2.7-0.3,4.9-1,6.6s-1.8,3-3.4,3.9
		c-1.6,0.9-3.7,1.3-6.5,1.3C77.1,37.5,74.9,37,73.3,36.1z"/>
	<path class="st1" d="M95.9,0.3h8.1v36.6h-8.1V0.3z"/>
</g>
</svg>
