<?xml version="1.0" standalone="no"?>
<!DOCTYPE svg PUBLIC "-//W3C//DTD SVG 20010904//EN"
 "http://www.w3.org/TR/2001/REC-SVG-20010904/DTD/svg10.dtd">
<svg version="1.0" xmlns="http://www.w3.org/2000/svg"
 width="700.000000pt" height="700.000000pt" viewBox="0 0 700.000000 700.000000"
 preserveAspectRatio="xMidYMid meet">
<metadata>
Created by potrace 1.11, written by Peter Selinger 2001-2013
</metadata>
<g transform="translate(0.000000,700.000000) scale(0.100000,-0.100000)"
fill="#000000" stroke="none">
<path d="M1916 4880 c-10 -4 -12 -262 -11 -1380 1 -756 3 -1378 3 -1381 3 -11
1101 -5 1105 6 3 9 1 2743 -2 2755 0 3 -244 5 -541 5 -298 0 -547 -2 -554 -5z"/>
<path d="M3694 4881 c-2 -2 -4 -253 -4 -558 l0 -553 58 -1 c31 0 80 -2 107 -4
28 -1 124 -6 215 -10 91 -4 194 -8 230 -10 36 -1 142 -6 235 -10 94 -4 202 -9
240 -10 39 -2 135 -7 215 -10 80 -3 183 -8 230 -10 47 -2 150 -7 230 -10 80
-3 183 -8 230 -10 47 -2 146 -7 220 -10 74 -3 180 -8 235 -10 55 -3 151 -7
213 -10 l112 -5 0 108 c3 564 0 1115 -5 1120 -6 7 -2754 10 -2761 3z"/>
<path d="M3692 2808 l3 -692 545 -1 c300 0 550 1 555 2 10 3 14 1307 4 1317
-4 4 -98 11 -294 21 -130 7 -249 13 -555 30 -47 3 -124 7 -173 10 l-87 6 2
-693z"/>
<path d="M537 2617 c1 -193 2 -386 3 -427 l0 -75 553 0 552 0 3 358 2 357 -32
1 c-18 0 -42 2 -53 4 -11 2 -42 7 -70 10 -27 4 -61 8 -75 10 -14 2 -61 9 -106
15 -44 6 -89 12 -100 14 -10 2 -46 7 -79 10 -33 4 -72 9 -86 12 -34 5 -93 13
-149 19 -25 3 -56 7 -70 10 -14 2 -45 7 -70 10 -25 3 -72 10 -105 15 -33 6
-73 10 -90 10 l-30 0 2 -353z"/>
</g>
</svg>
